<mxfile host="Electron" modified="2025-03-14T15:52:04.807Z" agent="Mozilla/5.0 (X11; Linux x86_64) AppleWebKit/537.36 (KHTML, like Gecko) draw.io/24.6.1 Chrome/124.0.6367.207 Electron/30.0.6 Safari/537.36" etag="NK3JkkjObMlTOZmbe5rb" version="24.6.1" type="device">
  <diagram name="Page-1" id="42789a77-a242-8287-6e28-9cd8cfd52e62">
    <mxGraphModel dx="1434" dy="2023" grid="1" gridSize="10" guides="1" tooltips="1" connect="1" arrows="1" fold="1" page="1" pageScale="1" pageWidth="827" pageHeight="1169" background="none" math="0" shadow="0">
      <root>
        <mxCell id="0" />
        <mxCell id="1" parent="0" />
        <mxCell id="1ea317790d2ca983-12" style="edgeStyle=none;rounded=1;html=1;labelBackgroundColor=#FFFFFF;startArrow=none;startFill=0;startSize=5;endArrow=classicThin;endFill=1;endSize=5;jettySize=auto;orthogonalLoop=1;strokeColor=#B3B3B3;strokeWidth=1;fontFamily=Verdana;fontSize=12" parent="1" source="1ea317790d2ca983-1" target="D4HV5ugJgljSf-iH9g9I-28" edge="1">
          <mxGeometry relative="1" as="geometry">
            <mxPoint x="647.8560031768711" y="-127.44420885427849" as="targetPoint" />
          </mxGeometry>
        </mxCell>
        <mxCell id="X0iNmSqpaTb7vp-CemVc-1" value="&lt;font style=&quot;font-size: 12px;&quot; face=&quot;Verdana&quot;&gt;part_of&lt;/font&gt;" style="edgeLabel;html=1;align=center;verticalAlign=middle;resizable=0;points=[];labelBackgroundColor=#FFFFFF;" parent="1ea317790d2ca983-12" vertex="1" connectable="0">
          <mxGeometry x="-0.08" y="-1" relative="1" as="geometry">
            <mxPoint as="offset" />
          </mxGeometry>
        </mxCell>
        <mxCell id="1ea317790d2ca983-13" value="&lt;span style=&quot;background-color: rgb(255, 255, 255);&quot;&gt;classified_as&lt;/span&gt;" style="edgeStyle=none;rounded=1;html=1;labelBackgroundColor=#FFFFFF;startArrow=none;startFill=0;startSize=5;endArrow=classicThin;endFill=1;endSize=5;jettySize=auto;orthogonalLoop=1;strokeColor=#B3B3B3;strokeWidth=1;fontFamily=Verdana;fontSize=12" parent="1" source="1ea317790d2ca983-1" target="1ea317790d2ca983-9" edge="1">
          <mxGeometry relative="1" as="geometry" />
        </mxCell>
        <mxCell id="1ea317790d2ca983-14" value="subject_of" style="edgeStyle=none;rounded=1;html=1;labelBackgroundColor=#FFFFFF;startArrow=none;startFill=0;startSize=5;endArrow=classicThin;endFill=1;endSize=5;jettySize=auto;orthogonalLoop=1;strokeColor=#B3B3B3;strokeWidth=1;fontFamily=Verdana;fontSize=12" parent="1" source="1ea317790d2ca983-1" target="1ea317790d2ca983-3" edge="1">
          <mxGeometry relative="1" as="geometry" />
        </mxCell>
        <mxCell id="1ea317790d2ca983-1" value="&lt;div&gt;Activity&lt;/div&gt;&lt;div&gt;&lt;font style=&quot;font-size: 11px;&quot;&gt;(Production)&lt;/font&gt;&lt;/div&gt;" style="ellipse;whiteSpace=wrap;html=1;rounded=0;shadow=1;comic=0;labelBackgroundColor=none;strokeWidth=2;fontFamily=Verdana;fontSize=12;align=center;fillColor=#1ba1e2;strokeColor=#36393D;fontColor=#ffffff;" parent="1" vertex="1">
          <mxGeometry x="730" y="-80" width="130" height="60" as="geometry" />
        </mxCell>
        <mxCell id="1ea317790d2ca983-21" value="took_place_at" style="edgeStyle=none;rounded=1;html=1;labelBackgroundColor=#FFFFFF;startArrow=none;startFill=0;startSize=5;endArrow=classicThin;endFill=1;endSize=5;jettySize=auto;orthogonalLoop=1;strokeColor=#B3B3B3;strokeWidth=1;fontFamily=Verdana;fontSize=12" parent="1" source="1ea317790d2ca983-1" target="1ea317790d2ca983-7" edge="1">
          <mxGeometry x="0.3042" y="-12" relative="1" as="geometry">
            <mxPoint as="offset" />
          </mxGeometry>
        </mxCell>
        <mxCell id="1ea317790d2ca983-22" value="timespan" style="edgeStyle=none;rounded=1;html=1;labelBackgroundColor=#FFFFFF;startArrow=none;startFill=0;startSize=5;endArrow=classicThin;endFill=1;endSize=5;jettySize=auto;orthogonalLoop=1;strokeColor=#B3B3B3;strokeWidth=1;fontFamily=Verdana;fontSize=12" parent="1" source="1ea317790d2ca983-1" target="1ea317790d2ca983-6" edge="1">
          <mxGeometry relative="1" as="geometry" />
        </mxCell>
        <mxCell id="1ea317790d2ca983-15" value="carried_out_by" style="edgeStyle=none;rounded=1;html=1;labelBackgroundColor=#FFFFFF;startArrow=none;startFill=0;startSize=5;endArrow=classicThin;endFill=1;endSize=5;jettySize=auto;orthogonalLoop=1;strokeColor=#B3B3B3;strokeWidth=1;fontFamily=Verdana;fontSize=12" parent="1" source="1ea317790d2ca983-1" target="1ea317790d2ca983-4" edge="1">
          <mxGeometry relative="1" as="geometry" />
        </mxCell>
        <mxCell id="1ea317790d2ca983-3" value="&lt;span&gt;LinguisticObject&lt;/span&gt;&lt;div&gt;&lt;span&gt;&lt;font style=&quot;font-size: 9px;&quot;&gt;(= show programme)&lt;/font&gt;&lt;/span&gt;&lt;/div&gt;" style="ellipse;whiteSpace=wrap;html=1;rounded=0;shadow=1;comic=0;labelBackgroundColor=none;strokeWidth=1;fontFamily=Verdana;fontSize=12;align=center;fillColor=#ffff88;strokeColor=#36393d;" parent="1" vertex="1">
          <mxGeometry x="740" y="260" width="130" height="60" as="geometry" />
        </mxCell>
        <mxCell id="1ea317790d2ca983-16" value="participant" style="edgeStyle=none;rounded=1;html=1;labelBackgroundColor=#FFFFFF;startArrow=none;startFill=0;startSize=5;endArrow=classicThin;endFill=1;endSize=5;jettySize=auto;orthogonalLoop=1;strokeColor=#B3B3B3;strokeWidth=1;fontFamily=Verdana;fontSize=12" parent="1" source="1ea317790d2ca983-1" target="1ea317790d2ca983-5" edge="1">
          <mxGeometry relative="1" as="geometry" />
        </mxCell>
        <mxCell id="1ea317790d2ca983-4" value="&lt;span&gt;Person&lt;/span&gt;&lt;div&gt;&lt;span&gt;&lt;font style=&quot;font-size: 8px;&quot;&gt;(director, actor, production crew...)&lt;/font&gt;&lt;/span&gt;&lt;/div&gt;" style="ellipse;whiteSpace=wrap;html=1;rounded=0;shadow=1;comic=0;labelBackgroundColor=none;strokeWidth=1;fontFamily=Verdana;fontSize=12;align=center;fillColor=#f8cecc;strokeColor=#b85450;" parent="1" vertex="1">
          <mxGeometry x="610" y="80" width="130" height="60" as="geometry" />
        </mxCell>
        <mxCell id="1ea317790d2ca983-5" value="&lt;span&gt;Group&lt;/span&gt;&lt;div&gt;&lt;span&gt;&lt;font style=&quot;font-size: 9px;&quot;&gt;(= sponsors...)&lt;/font&gt;&lt;/span&gt;&lt;/div&gt;" style="ellipse;whiteSpace=wrap;html=1;rounded=0;shadow=1;comic=0;labelBackgroundColor=none;strokeWidth=1;fontFamily=Verdana;fontSize=12;align=center;rotation=0;fillColor=#f8cecc;strokeColor=#b85450;" parent="1" vertex="1">
          <mxGeometry x="910" y="20" width="130" height="60" as="geometry" />
        </mxCell>
        <mxCell id="1ea317790d2ca983-23" value="dimension" style="edgeStyle=none;rounded=1;html=1;labelBackgroundColor=#FFFFFF;startArrow=none;startFill=0;startSize=5;endArrow=classicThin;endFill=1;endSize=5;jettySize=auto;orthogonalLoop=1;strokeColor=#B3B3B3;strokeWidth=1;fontFamily=Verdana;fontSize=12" parent="1" source="1ea317790d2ca983-1" target="1ea317790d2ca983-8" edge="1">
          <mxGeometry relative="1" as="geometry" />
        </mxCell>
        <mxCell id="1ea317790d2ca983-6" value="&lt;span&gt;TimeSpan&lt;/span&gt;&lt;div&gt;&lt;span&gt;&lt;font style=&quot;font-size: 9px;&quot;&gt;(= starting and ending dates of the Production)&lt;/font&gt;&lt;/span&gt;&lt;/div&gt;" style="ellipse;whiteSpace=wrap;html=1;rounded=0;shadow=1;comic=0;labelBackgroundColor=none;strokeWidth=1;fontFamily=Verdana;fontSize=12;align=center;fillColor=#dae8fc;strokeColor=#6c8ebf;" parent="1" vertex="1">
          <mxGeometry x="980" y="-230" width="130" height="60" as="geometry" />
        </mxCell>
        <mxCell id="1ea317790d2ca983-7" value="&lt;span&gt;Place&lt;/span&gt;&lt;div&gt;&lt;span&gt;&lt;font style=&quot;font-size: 9px;&quot;&gt;(= theatre)&lt;/font&gt;&lt;/span&gt;&lt;/div&gt;" style="ellipse;whiteSpace=wrap;html=1;rounded=0;shadow=1;comic=0;labelBackgroundColor=none;strokeWidth=1;fontFamily=Verdana;fontSize=12;align=center;fillColor=#60a917;strokeColor=#2D7600;fontColor=#ffffff;" parent="1" vertex="1">
          <mxGeometry x="820" y="-270" width="130" height="60" as="geometry" />
        </mxCell>
        <mxCell id="1ea317790d2ca983-8" value="Dimension&lt;div&gt;&lt;font style=&quot;font-size: 9px;&quot;&gt;(= duration of the show&lt;/font&gt;&lt;/div&gt;&lt;div&gt;&lt;font style=&quot;font-size: 9px;&quot;&gt;+ price)&lt;/font&gt;&lt;/div&gt;" style="ellipse;whiteSpace=wrap;html=1;rounded=0;shadow=1;comic=0;labelBackgroundColor=none;strokeWidth=1;fontFamily=Verdana;fontSize=12;align=center;fillColor=#eeeeee;strokeColor=#36393d;" parent="1" vertex="1">
          <mxGeometry x="1050" y="-150" width="130" height="60" as="geometry" />
        </mxCell>
        <mxCell id="1ea317790d2ca983-19" value="influenced_by" style="edgeStyle=none;rounded=1;html=1;labelBackgroundColor=#FFFFFF;startArrow=none;startFill=0;startSize=5;endArrow=classicThin;endFill=1;endSize=5;jettySize=auto;orthogonalLoop=1;strokeColor=#B3B3B3;strokeWidth=1;fontFamily=Verdana;fontSize=12" parent="1" source="1ea317790d2ca983-1" target="D4HV5ugJgljSf-iH9g9I-5" edge="1">
          <mxGeometry relative="1" as="geometry">
            <mxPoint x="750" y="-50" as="targetPoint" />
          </mxGeometry>
        </mxCell>
        <mxCell id="1ea317790d2ca983-9" value="type&lt;div style=&quot;font-size: 11px;&quot;&gt;(&lt;font style=&quot;font-size: 11px;&quot;&gt;LinguisticObject&lt;/font&gt;&lt;/div&gt;&lt;div style=&quot;&quot;&gt;&lt;font style=&quot;font-size: 9px;&quot;&gt; = genre&lt;/font&gt;&lt;span style=&quot;font-size: 11px;&quot;&gt;)&lt;/span&gt;&lt;/div&gt;" style="ellipse;whiteSpace=wrap;html=1;rounded=0;shadow=1;comic=0;labelBackgroundColor=none;strokeWidth=1;fontFamily=Verdana;fontSize=12;align=center;rotation=0;fillColor=#ffcc99;strokeColor=#36393d;" parent="1" vertex="1">
          <mxGeometry x="640" y="-270" width="130" height="60" as="geometry" />
        </mxCell>
        <mxCell id="1ea317790d2ca983-20" value="identified_by" style="edgeStyle=none;rounded=1;html=1;labelBackgroundColor=#FFFFFF;startArrow=none;startFill=0;startSize=5;endArrow=classicThin;endFill=1;endSize=5;jettySize=auto;orthogonalLoop=1;strokeColor=#B3B3B3;strokeWidth=1;fontFamily=Verdana;fontSize=12" parent="1" source="1ea317790d2ca983-1" target="1ea317790d2ca983-11" edge="1">
          <mxGeometry relative="1" as="geometry" />
        </mxCell>
        <mxCell id="1ea317790d2ca983-11" value="&lt;span&gt;Name&lt;/span&gt;&lt;div&gt;&lt;span&gt;&lt;font style=&quot;font-size: 9px;&quot;&gt;(= literal title + language)&lt;/font&gt;&lt;/span&gt;&lt;/div&gt;" style="ellipse;whiteSpace=wrap;html=1;rounded=0;shadow=1;comic=0;labelBackgroundColor=none;strokeWidth=1;fontFamily=Verdana;fontSize=12;align=center;rotation=0;fillColor=#f0a30a;strokeColor=#BD7000;fontColor=#000000;" parent="1" vertex="1">
          <mxGeometry x="490" y="20" width="130" height="60" as="geometry" />
        </mxCell>
        <mxCell id="X0iNmSqpaTb7vp-CemVc-2" value="&lt;span&gt;LinguisticObject&lt;/span&gt;&lt;div&gt;&lt;span&gt;&lt;font style=&quot;font-size: 9px;&quot;&gt;(reference texts, literal)&lt;/font&gt;&lt;/span&gt;&lt;/div&gt;" style="ellipse;whiteSpace=wrap;html=1;rounded=0;shadow=1;comic=0;labelBackgroundColor=none;strokeWidth=1;fontFamily=Verdana;fontSize=12;align=center;fillColor=#ffff88;strokeColor=#36393d;" parent="1" vertex="1">
          <mxGeometry x="810" y="145" width="130" height="60" as="geometry" />
        </mxCell>
        <mxCell id="X0iNmSqpaTb7vp-CemVc-3" value="&lt;span style=&quot;background-color: rgb(255, 255, 255);&quot;&gt;referred_to_by&lt;/span&gt;" style="edgeStyle=none;rounded=1;html=1;labelBackgroundColor=none;startArrow=none;startFill=0;startSize=5;endArrow=classicThin;endFill=1;endSize=5;jettySize=auto;orthogonalLoop=1;strokeColor=#B3B3B3;strokeWidth=1;fontFamily=Verdana;fontSize=12" parent="1" source="1ea317790d2ca983-1" target="X0iNmSqpaTb7vp-CemVc-2" edge="1">
          <mxGeometry relative="1" as="geometry">
            <mxPoint x="854" y="-71" as="sourcePoint" />
            <mxPoint x="910" y="101" as="targetPoint" />
          </mxGeometry>
        </mxCell>
        <mxCell id="D4HV5ugJgljSf-iH9g9I-1" style="edgeStyle=none;rounded=1;html=1;labelBackgroundColor=#FFFFFF;startArrow=none;startFill=0;startSize=5;endArrow=classicThin;endFill=1;endSize=5;jettySize=auto;orthogonalLoop=1;strokeColor=#B3B3B3;strokeWidth=1;fontFamily=Verdana;fontSize=12" parent="1" source="D4HV5ugJgljSf-iH9g9I-5" target="1ea317790d2ca983-11" edge="1">
          <mxGeometry relative="1" as="geometry">
            <mxPoint x="157.85600317686044" y="-127.44420885428372" as="targetPoint" />
          </mxGeometry>
        </mxCell>
        <mxCell id="D4HV5ugJgljSf-iH9g9I-2" value="&lt;font style=&quot;font-size: 12px;&quot; face=&quot;Verdana&quot;&gt;identified_by&lt;/font&gt;" style="edgeLabel;html=1;align=center;verticalAlign=middle;resizable=0;points=[];labelBackgroundColor=#FFFFFF;" parent="D4HV5ugJgljSf-iH9g9I-1" vertex="1" connectable="0">
          <mxGeometry x="-0.08" y="-2" relative="1" as="geometry">
            <mxPoint as="offset" />
          </mxGeometry>
        </mxCell>
        <mxCell id="D4HV5ugJgljSf-iH9g9I-3" value="classified_as" style="edgeStyle=none;rounded=1;html=1;labelBackgroundColor=#FFFFFF;startArrow=none;startFill=0;startSize=5;endArrow=classicThin;endFill=1;endSize=5;jettySize=auto;orthogonalLoop=1;strokeColor=#B3B3B3;strokeWidth=1;fontFamily=Verdana;fontSize=12" parent="1" source="D4HV5ugJgljSf-iH9g9I-5" target="D4HV5ugJgljSf-iH9g9I-12" edge="1">
          <mxGeometry relative="1" as="geometry" />
        </mxCell>
        <mxCell id="D4HV5ugJgljSf-iH9g9I-4" value="created_by" style="edgeStyle=none;rounded=1;html=1;labelBackgroundColor=#FFFFFF;startArrow=none;startFill=0;startSize=5;endArrow=classicThin;endFill=1;endSize=5;jettySize=auto;orthogonalLoop=1;strokeColor=#B3B3B3;strokeWidth=1;fontFamily=Verdana;fontSize=12" parent="1" source="D4HV5ugJgljSf-iH9g9I-5" target="D4HV5ugJgljSf-iH9g9I-8" edge="1">
          <mxGeometry relative="1" as="geometry" />
        </mxCell>
        <mxCell id="D4HV5ugJgljSf-iH9g9I-5" value="PropositionalObject&lt;div&gt;&lt;span style=&quot;font-size: 11px; background-color: initial;&quot;&gt;(W&lt;/span&gt;&lt;span style=&quot;font-size: 11px; background-color: initial;&quot;&gt;ork)&lt;/span&gt;&lt;/div&gt;" style="ellipse;whiteSpace=wrap;html=1;rounded=0;shadow=1;comic=0;labelBackgroundColor=none;strokeWidth=2;fontFamily=Verdana;fontSize=12;align=center;fillColor=#ffff88;strokeColor=#36393d;" parent="1" vertex="1">
          <mxGeometry x="240" y="-80" width="130" height="60" as="geometry" />
        </mxCell>
        <mxCell id="D4HV5ugJgljSf-iH9g9I-7" value="" style="edgeStyle=none;rounded=1;html=1;labelBackgroundColor=none;startArrow=none;startFill=0;startSize=5;endArrow=classicThin;endFill=1;endSize=5;jettySize=auto;orthogonalLoop=1;strokeColor=#B3B3B3;strokeWidth=1;fontFamily=Verdana;fontSize=12" parent="1" source="D4HV5ugJgljSf-iH9g9I-8" target="D4HV5ugJgljSf-iH9g9I-10" edge="1">
          <mxGeometry relative="1" as="geometry" />
        </mxCell>
        <mxCell id="a8D4q5FA6OWvnn_VdvLk-2" value="&lt;span style=&quot;font-family: Verdana; font-size: 12px;&quot;&gt;carried_out_by&lt;/span&gt;" style="edgeLabel;html=1;align=center;verticalAlign=middle;resizable=0;points=[];" vertex="1" connectable="0" parent="D4HV5ugJgljSf-iH9g9I-7">
          <mxGeometry x="-0.2347" y="-3" relative="1" as="geometry">
            <mxPoint x="-12" y="3" as="offset" />
          </mxGeometry>
        </mxCell>
        <mxCell id="D4HV5ugJgljSf-iH9g9I-8" value="&lt;span&gt;Creation&lt;/span&gt;" style="ellipse;whiteSpace=wrap;html=1;rounded=0;shadow=1;comic=0;labelBackgroundColor=none;strokeWidth=1;fontFamily=Verdana;fontSize=12;align=center;fillColor=#cce5ff;strokeColor=#36393d;" parent="1" vertex="1">
          <mxGeometry x="100" y="30" width="130" height="60" as="geometry" />
        </mxCell>
        <mxCell id="D4HV5ugJgljSf-iH9g9I-9" value="subject_of" style="edgeStyle=none;rounded=1;html=1;labelBackgroundColor=#FFFFFF;startArrow=none;startFill=0;startSize=5;endArrow=classicThin;endFill=1;endSize=5;jettySize=auto;orthogonalLoop=1;strokeColor=#B3B3B3;strokeWidth=1;fontFamily=Verdana;fontSize=12" parent="1" source="D4HV5ugJgljSf-iH9g9I-5" target="a8D4q5FA6OWvnn_VdvLk-6" edge="1">
          <mxGeometry relative="1" as="geometry">
            <mxPoint x="418.2519277135784" y="146.01295181196292" as="targetPoint" />
          </mxGeometry>
        </mxCell>
        <mxCell id="D4HV5ugJgljSf-iH9g9I-10" value="&lt;span&gt;Person&lt;/span&gt;&lt;div&gt;&lt;span&gt;&lt;font style=&quot;font-size: 9px;&quot;&gt;(= director)&lt;/font&gt;&lt;/span&gt;&lt;/div&gt;" style="ellipse;whiteSpace=wrap;html=1;rounded=0;shadow=1;comic=0;labelBackgroundColor=none;strokeWidth=1;fontFamily=Verdana;fontSize=12;align=center;fillColor=#ffcccc;strokeColor=#36393d;" parent="1" vertex="1">
          <mxGeometry x="10" y="140" width="130" height="60" as="geometry" />
        </mxCell>
        <mxCell id="D4HV5ugJgljSf-iH9g9I-12" value="Type&lt;div&gt;&lt;font style=&quot;font-size: 11px;&quot;&gt;(Abstract Work)&lt;/font&gt;&lt;/div&gt;" style="ellipse;whiteSpace=wrap;html=1;rounded=0;shadow=1;comic=0;labelBackgroundColor=none;strokeWidth=1;fontFamily=Verdana;fontSize=12;align=center;fillColor=#ffcc99;strokeColor=#36393d;" parent="1" vertex="1">
          <mxGeometry x="240" y="-210" width="130" height="60" as="geometry" />
        </mxCell>
        <mxCell id="D4HV5ugJgljSf-iH9g9I-13" value="" style="edgeStyle=none;rounded=1;html=1;labelBackgroundColor=#FFFFFF;startArrow=none;startFill=0;startSize=5;endArrow=classicThin;endFill=1;endSize=5;jettySize=auto;orthogonalLoop=1;strokeColor=#B3B3B3;strokeWidth=1;fontFamily=Verdana;fontSize=12;" parent="1" source="D4HV5ugJgljSf-iH9g9I-8" target="D4HV5ugJgljSf-iH9g9I-15" edge="1">
          <mxGeometry relative="1" as="geometry">
            <mxPoint x="548" y="-110" as="sourcePoint" />
          </mxGeometry>
        </mxCell>
        <mxCell id="D4HV5ugJgljSf-iH9g9I-14" value="&lt;font style=&quot;font-size: 12px;&quot; face=&quot;Verdana&quot;&gt;timespan&lt;/font&gt;" style="edgeLabel;html=1;align=center;verticalAlign=middle;resizable=0;points=[];labelBackgroundColor=#FFFFFF;" parent="D4HV5ugJgljSf-iH9g9I-13" vertex="1" connectable="0">
          <mxGeometry x="-0.1032" y="-1" relative="1" as="geometry">
            <mxPoint y="1" as="offset" />
          </mxGeometry>
        </mxCell>
        <mxCell id="D4HV5ugJgljSf-iH9g9I-15" value="&lt;span&gt;TimeSpan&lt;/span&gt;&lt;div&gt;&lt;span&gt;&lt;font style=&quot;font-size: 9px;&quot;&gt;(= premiere date)&lt;/font&gt;&lt;/span&gt;&lt;/div&gt;" style="ellipse;whiteSpace=wrap;html=1;rounded=0;shadow=1;comic=0;labelBackgroundColor=none;strokeWidth=1;fontFamily=Verdana;fontSize=12;align=center;fillColor=#dae8fc;strokeColor=#6c8ebf;" parent="1" vertex="1">
          <mxGeometry x="180" y="140" width="130" height="60" as="geometry" />
        </mxCell>
        <mxCell id="D4HV5ugJgljSf-iH9g9I-16" style="edgeStyle=none;rounded=1;html=1;labelBackgroundColor=#FFFFFF;startArrow=none;startFill=0;startSize=5;endArrow=classicThin;endFill=1;endSize=5;jettySize=auto;orthogonalLoop=1;strokeColor=#B3B3B3;strokeWidth=1;fontFamily=Verdana;fontSize=12" parent="1" source="D4HV5ugJgljSf-iH9g9I-20" target="D4HV5ugJgljSf-iH9g9I-21" edge="1">
          <mxGeometry relative="1" as="geometry" />
        </mxCell>
        <mxCell id="D4HV5ugJgljSf-iH9g9I-17" value="&lt;font face=&quot;Verdana&quot; style=&quot;font-size: 12px; background-color: rgb(255, 255, 255);&quot;&gt;timespan&lt;/font&gt;" style="edgeLabel;html=1;align=center;verticalAlign=middle;resizable=0;points=[];" parent="D4HV5ugJgljSf-iH9g9I-16" vertex="1" connectable="0">
          <mxGeometry x="-0.16" y="-1" relative="1" as="geometry">
            <mxPoint as="offset" />
          </mxGeometry>
        </mxCell>
        <mxCell id="D4HV5ugJgljSf-iH9g9I-18" value="&lt;span style=&quot;background-color: rgb(255, 255, 255);&quot;&gt;part_of&lt;/span&gt;" style="edgeStyle=none;rounded=1;html=1;labelBackgroundColor=none;startArrow=none;startFill=0;startSize=5;endArrow=classicThin;endFill=1;endSize=5;jettySize=auto;orthogonalLoop=1;strokeColor=#B3B3B3;strokeWidth=1;fontFamily=Verdana;fontSize=12" parent="1" source="D4HV5ugJgljSf-iH9g9I-20" target="1ea317790d2ca983-1" edge="1">
          <mxGeometry relative="1" as="geometry">
            <mxPoint x="1184" y="-50" as="targetPoint" />
          </mxGeometry>
        </mxCell>
        <mxCell id="D4HV5ugJgljSf-iH9g9I-19" value="&lt;span style=&quot;background-color: rgb(255, 255, 255);&quot;&gt;classified_as&lt;/span&gt;" style="edgeStyle=none;rounded=1;html=1;labelBackgroundColor=none;startArrow=none;startFill=0;startSize=5;endArrow=classicThin;endFill=1;endSize=5;jettySize=auto;orthogonalLoop=1;strokeColor=#B3B3B3;strokeWidth=1;fontFamily=Verdana;fontSize=12" parent="1" source="D4HV5ugJgljSf-iH9g9I-20" target="D4HV5ugJgljSf-iH9g9I-22" edge="1">
          <mxGeometry relative="1" as="geometry" />
        </mxCell>
        <mxCell id="D4HV5ugJgljSf-iH9g9I-20" value="Activity&lt;div&gt;&lt;font style=&quot;font-size: 11px;&quot;&gt;(Show)&lt;/font&gt;&lt;/div&gt;" style="ellipse;whiteSpace=wrap;html=1;rounded=0;shadow=1;comic=0;labelBackgroundColor=none;strokeWidth=2;fontFamily=Verdana;fontSize=12;align=center;fillColor=#1ba1e2;fontColor=#ffffff;strokeColor=#36393D;" parent="1" vertex="1">
          <mxGeometry x="1220" y="-80" width="130" height="60" as="geometry" />
        </mxCell>
        <mxCell id="D4HV5ugJgljSf-iH9g9I-21" value="&lt;span&gt;TimeSpan&lt;/span&gt;&lt;div&gt;&lt;span&gt;&lt;font style=&quot;font-size: 9px;&quot;&gt;(= date and hour of the performance)&lt;/font&gt;&lt;/span&gt;&lt;/div&gt;" style="ellipse;whiteSpace=wrap;html=1;rounded=0;shadow=1;comic=0;labelBackgroundColor=none;strokeWidth=1;fontFamily=Verdana;fontSize=12;align=center;fillColor=#dae8fc;strokeColor=#6c8ebf;" parent="1" vertex="1">
          <mxGeometry x="1460" y="-80" width="130" height="60" as="geometry" />
        </mxCell>
        <mxCell id="D4HV5ugJgljSf-iH9g9I-22" value="&lt;span&gt;Type&lt;/span&gt;&lt;div&gt;&lt;span&gt;&lt;font style=&quot;font-size: 11px;&quot;&gt;(show)&lt;/font&gt;&lt;/span&gt;&lt;/div&gt;" style="ellipse;whiteSpace=wrap;html=1;rounded=0;shadow=1;comic=0;labelBackgroundColor=none;strokeWidth=1;fontFamily=Verdana;fontSize=12;align=center;fillColor=#ffcc99;strokeColor=#36393d;" parent="1" vertex="1">
          <mxGeometry x="1220" y="-190" width="130" height="60" as="geometry" />
        </mxCell>
        <mxCell id="D4HV5ugJgljSf-iH9g9I-23" value="&lt;span style=&quot;background-color: rgb(255, 255, 255);&quot;&gt;subject_of&lt;/span&gt;" style="edgeStyle=none;rounded=1;html=1;labelBackgroundColor=none;startArrow=none;startFill=0;startSize=5;endArrow=classicThin;endFill=1;endSize=5;jettySize=auto;orthogonalLoop=1;strokeColor=#B3B3B3;strokeWidth=1;fontFamily=Verdana;fontSize=12" parent="1" source="D4HV5ugJgljSf-iH9g9I-20" target="1ea317790d2ca983-3" edge="1">
          <mxGeometry relative="1" as="geometry">
            <mxPoint x="1349" y="50" as="targetPoint" />
          </mxGeometry>
        </mxCell>
        <mxCell id="D4HV5ugJgljSf-iH9g9I-28" value="&lt;div&gt;Activity&lt;/div&gt;&lt;div&gt;&lt;font style=&quot;font-size: 11px;&quot;&gt;(Festival)&lt;/font&gt;&lt;/div&gt;" style="ellipse;whiteSpace=wrap;html=1;rounded=0;shadow=1;comic=0;labelBackgroundColor=none;strokeWidth=2;fontFamily=Verdana;fontSize=12;align=center;fillColor=#1ba1e2;strokeColor=#36393D;fontColor=#ffffff;" parent="1" vertex="1">
          <mxGeometry x="450" y="-220" width="130" height="60" as="geometry" />
        </mxCell>
        <mxCell id="a8D4q5FA6OWvnn_VdvLk-1" value="subject_of" style="edgeStyle=none;rounded=1;html=1;labelBackgroundColor=#FFFFFF;startArrow=none;startFill=0;startSize=5;endArrow=classicThin;endFill=1;endSize=5;jettySize=auto;orthogonalLoop=1;strokeColor=#B3B3B3;strokeWidth=1;fontFamily=Verdana;fontSize=12" edge="1" parent="1" source="D4HV5ugJgljSf-iH9g9I-5" target="1ea317790d2ca983-3">
          <mxGeometry relative="1" as="geometry">
            <mxPoint x="370" y="-11" as="sourcePoint" />
            <mxPoint x="520" y="271" as="targetPoint" />
          </mxGeometry>
        </mxCell>
        <mxCell id="a8D4q5FA6OWvnn_VdvLk-3" style="edgeStyle=none;rounded=1;html=1;labelBackgroundColor=#FFFFFF;startArrow=none;startFill=0;startSize=5;endArrow=classicThin;endFill=1;endSize=5;jettySize=auto;orthogonalLoop=1;strokeColor=#B3B3B3;strokeWidth=1;fontFamily=Verdana;fontSize=12" edge="1" parent="1" source="a8D4q5FA6OWvnn_VdvLk-6" target="a8D4q5FA6OWvnn_VdvLk-7">
          <mxGeometry relative="1" as="geometry" />
        </mxCell>
        <mxCell id="a8D4q5FA6OWvnn_VdvLk-4" value="&lt;font style=&quot;font-size: 12px;&quot; face=&quot;Verdana&quot;&gt;identified_by&lt;/font&gt;" style="edgeLabel;html=1;align=center;verticalAlign=middle;resizable=0;points=[];labelBackgroundColor=#FFFFFF;" vertex="1" connectable="0" parent="a8D4q5FA6OWvnn_VdvLk-3">
          <mxGeometry x="-0.08" y="-2" relative="1" as="geometry">
            <mxPoint as="offset" />
          </mxGeometry>
        </mxCell>
        <mxCell id="a8D4q5FA6OWvnn_VdvLk-5" value="created_by" style="edgeStyle=none;rounded=1;html=1;labelBackgroundColor=#FFFFFF;startArrow=none;startFill=0;startSize=5;endArrow=classicThin;endFill=1;endSize=5;jettySize=auto;orthogonalLoop=1;strokeColor=#B3B3B3;strokeWidth=1;fontFamily=Verdana;fontSize=12" edge="1" parent="1" source="a8D4q5FA6OWvnn_VdvLk-6" target="a8D4q5FA6OWvnn_VdvLk-10">
          <mxGeometry relative="1" as="geometry" />
        </mxCell>
        <mxCell id="a8D4q5FA6OWvnn_VdvLk-6" value="LinguisticObject&lt;div&gt;&lt;span style=&quot;font-size: 11px; background-color: initial;&quot;&gt;(Text&amp;nbsp;&lt;/span&gt;&lt;span style=&quot;font-size: 9px; background-color: initial;&quot;&gt;= play&lt;/span&gt;&lt;span style=&quot;background-color: initial; font-size: 11px;&quot;&gt;)&lt;/span&gt;&lt;/div&gt;" style="ellipse;whiteSpace=wrap;html=1;rounded=0;shadow=1;comic=0;labelBackgroundColor=none;strokeWidth=2;fontFamily=Verdana;fontSize=12;align=center;fillColor=#ffff88;strokeColor=#36393d;" vertex="1" parent="1">
          <mxGeometry x="320" y="180" width="130" height="60" as="geometry" />
        </mxCell>
        <mxCell id="a8D4q5FA6OWvnn_VdvLk-7" value="&lt;span&gt;Name&lt;/span&gt;&lt;div&gt;&lt;span&gt;&lt;font style=&quot;font-size: 9px;&quot;&gt;(= literal title + language)&lt;/font&gt;&lt;/span&gt;&lt;/div&gt;" style="ellipse;whiteSpace=wrap;html=1;rounded=0;shadow=1;comic=0;labelBackgroundColor=none;strokeWidth=1;fontFamily=Verdana;fontSize=12;align=center;fillColor=#fff2cc;strokeColor=#d6b656;" vertex="1" parent="1">
          <mxGeometry x="570" y="270" width="130" height="60" as="geometry" />
        </mxCell>
        <mxCell id="a8D4q5FA6OWvnn_VdvLk-8" value="" style="edgeStyle=none;rounded=1;html=1;labelBackgroundColor=none;startArrow=none;startFill=0;startSize=5;endArrow=classicThin;endFill=1;endSize=5;jettySize=auto;orthogonalLoop=1;strokeColor=#B3B3B3;strokeWidth=1;fontFamily=Verdana;fontSize=12" edge="1" parent="1" source="a8D4q5FA6OWvnn_VdvLk-10" target="a8D4q5FA6OWvnn_VdvLk-11">
          <mxGeometry relative="1" as="geometry" />
        </mxCell>
        <mxCell id="a8D4q5FA6OWvnn_VdvLk-9" value="&lt;font style=&quot;font-size: 13px;&quot; face=&quot;Verdana&quot;&gt;carried_out_by&lt;/font&gt;" style="edgeLabel;html=1;align=center;verticalAlign=middle;resizable=0;points=[];" vertex="1" connectable="0" parent="a8D4q5FA6OWvnn_VdvLk-8">
          <mxGeometry x="-0.0337" y="3" relative="1" as="geometry">
            <mxPoint as="offset" />
          </mxGeometry>
        </mxCell>
        <mxCell id="a8D4q5FA6OWvnn_VdvLk-10" value="&lt;span&gt;Creation&lt;/span&gt;" style="ellipse;whiteSpace=wrap;html=1;rounded=0;shadow=1;comic=0;labelBackgroundColor=none;strokeWidth=1;fontFamily=Verdana;fontSize=12;align=center;fillColor=#cce5ff;strokeColor=#36393d;" vertex="1" parent="1">
          <mxGeometry x="320" y="280" width="130" height="60" as="geometry" />
        </mxCell>
        <mxCell id="a8D4q5FA6OWvnn_VdvLk-11" value="&lt;span&gt;Person&lt;/span&gt;&lt;div&gt;&lt;span&gt;&lt;font style=&quot;font-size: 9px;&quot;&gt;(= author)&lt;/font&gt;&lt;/span&gt;&lt;/div&gt;" style="ellipse;whiteSpace=wrap;html=1;rounded=0;shadow=1;comic=0;labelBackgroundColor=none;strokeWidth=1;fontFamily=Verdana;fontSize=12;align=center;fillColor=#ffcccc;strokeColor=#36393d;" vertex="1" parent="1">
          <mxGeometry x="210" y="380" width="130" height="60" as="geometry" />
        </mxCell>
        <mxCell id="a8D4q5FA6OWvnn_VdvLk-12" value="" style="edgeStyle=none;rounded=1;html=1;labelBackgroundColor=#FFFFFF;startArrow=none;startFill=0;startSize=5;endArrow=classicThin;endFill=1;endSize=5;jettySize=auto;orthogonalLoop=1;strokeColor=#B3B3B3;strokeWidth=1;fontFamily=Verdana;fontSize=12;" edge="1" parent="1" source="a8D4q5FA6OWvnn_VdvLk-10" target="a8D4q5FA6OWvnn_VdvLk-14">
          <mxGeometry relative="1" as="geometry">
            <mxPoint x="768" y="140" as="sourcePoint" />
          </mxGeometry>
        </mxCell>
        <mxCell id="a8D4q5FA6OWvnn_VdvLk-13" value="&lt;font style=&quot;font-size: 12px;&quot; face=&quot;Verdana&quot;&gt;timespan&lt;/font&gt;" style="edgeLabel;html=1;align=center;verticalAlign=middle;resizable=0;points=[];labelBackgroundColor=#FFFFFF;" vertex="1" connectable="0" parent="a8D4q5FA6OWvnn_VdvLk-12">
          <mxGeometry x="-0.1032" y="-1" relative="1" as="geometry">
            <mxPoint y="1" as="offset" />
          </mxGeometry>
        </mxCell>
        <mxCell id="a8D4q5FA6OWvnn_VdvLk-14" value="&lt;span&gt;TimeSpan&lt;/span&gt;&lt;div&gt;&lt;span&gt;&lt;font style=&quot;font-size: 9px;&quot;&gt;(= premiere date)&lt;/font&gt;&lt;/span&gt;&lt;/div&gt;" style="ellipse;whiteSpace=wrap;html=1;rounded=0;shadow=1;comic=0;labelBackgroundColor=none;strokeWidth=1;fontFamily=Verdana;fontSize=12;align=center;fillColor=#dae8fc;strokeColor=#6c8ebf;" vertex="1" parent="1">
          <mxGeometry x="430" y="380" width="130" height="60" as="geometry" />
        </mxCell>
      </root>
    </mxGraphModel>
  </diagram>
</mxfile>
